<svg version="1.1" id="Layer_1" xmlns="http://www.w3.org/2000/svg" xmlns:xlink="http://www.w3.org/1999/xlink" x="0px" y="0px"
	 width="100%" viewBox="0 0 1024 1024" enable-background="new 0 0 1024 1024" xml:space="preserve">
<path fill="#000000" opacity="1.000000" stroke="none" 
	d="
M402.670288,413.999939 
	C402.669830,403.003265 402.782196,392.504791 402.609222,382.011017 
	C402.547638,378.275360 403.559296,376.643311 407.636627,376.662872 
	C441.624817,376.826050 475.630341,376.192139 509.596802,377.084778 
	C531.937805,377.671906 552.575745,384.307800 568.284241,401.663300 
	C577.832397,412.212677 582.337952,425.022919 583.818909,438.836121 
	C585.449524,454.044434 584.841003,469.178436 577.814270,483.247162 
	C570.524963,497.841644 558.302368,506.981628 543.594177,513.182922 
	C540.986511,514.282410 538.310425,515.223267 535.723145,516.366699 
	C533.052063,517.547119 532.216736,519.629822 535.143677,521.009766 
	C554.101501,529.947571 561.990662,547.111633 568.079956,565.403015 
	C576.753357,591.456360 584.908508,617.681946 593.412964,643.792236 
	C594.724976,647.820557 593.742249,649.324707 589.515259,649.250000 
	C581.686829,649.111572 573.849609,649.044434 566.025513,649.272034 
	C562.169434,649.384155 560.450500,647.841736 559.299988,644.239197 
	C550.893433,617.915771 542.321838,591.644897 533.730530,565.380859 
	C532.542603,561.749329 531.001465,558.229858 529.552124,554.687927 
	C522.227234,536.787415 508.319763,528.155396 489.536560,527.508484 
	C473.060913,526.941101 456.550385,527.456482 440.057983,527.263184 
	C435.134155,527.205566 435.367950,530.185425 435.369385,533.512451 
	C435.384705,569.500916 435.367432,605.489380 435.355286,641.477844 
	C435.352661,649.189087 435.345642,649.194763 427.713165,649.206543 
	C421.548462,649.216125 415.383759,649.219116 409.219086,649.208069 
	C402.701630,649.196350 402.676575,649.187622 402.672943,642.426819 
	C402.661255,620.600464 402.670197,598.774109 402.670319,576.947754 
	C402.670654,522.798462 402.670532,468.649200 402.670288,413.999939 
M548.847473,437.618561 
	C544.332458,415.804626 528.857178,406.384491 508.732880,405.545380 
	C485.964783,404.596069 463.129303,405.302643 440.323822,405.168152 
	C436.693451,405.146729 435.304443,406.435089 435.316345,410.119751 
	C435.406830,438.086365 435.407074,466.053497 435.312836,494.020050 
	C435.300812,497.592773 436.407593,499.135559 440.157471,499.101746 
	C463.626770,498.889893 487.104858,499.140594 510.565094,498.594696 
	C529.264709,498.159546 544.259033,485.980011 548.401489,468.578979 
	C550.767944,458.638397 551.107727,448.536713 548.847473,437.618561 
z"/>
</svg>